<?xml version="1.0" encoding="UTF-8" standalone="no"?>
<!DOCTYPE svg PUBLIC "-//W3C//DTD SVG 20010904//EN">

<svg xmlns="http://www.w3.org/2000/svg"
     width="6.56978in" height="6.0142in"
     viewBox="0 0 946 866">
  <path id="Selection"
        fill="none" stroke="black" stroke-width="1"
        d="M 946.00,0.00
           C 946.00,0.00 946.00,866.00 946.00,866.00
             946.00,866.00 0.00,866.00 0.00,866.00
             0.00,866.00 0.00,0.00 0.00,0.00
             0.00,0.00 946.00,0.00 946.00,0.00 Z
           M 254.60,122.02
           C 252.97,123.31 252.98,126.10 252.72,128.00
             252.72,128.00 250.95,142.00 250.95,142.00
             250.95,142.00 249.08,158.00 249.08,158.00
             249.08,158.00 251.91,182.00 251.91,182.00
             251.91,182.00 251.91,202.00 251.91,202.00
             251.91,202.00 251.00,217.00 251.00,217.00
             251.00,217.00 251.00,232.00 251.00,232.00
             251.00,232.00 252.00,248.00 252.00,248.00
             252.00,248.00 252.00,279.00 252.00,279.00
             252.00,279.00 253.00,291.00 253.00,291.00
             253.00,291.00 253.00,300.00 253.00,300.00
             253.00,300.00 255.09,326.00 255.09,326.00
             255.09,326.00 257.00,351.00 257.00,351.00
             257.02,361.82 256.19,394.53 258.64,403.00
             258.64,403.00 270.22,427.00 270.22,427.00
             270.22,427.00 274.51,451.00 274.51,451.00
             274.51,451.00 284.82,474.00 284.82,474.00
             287.61,479.32 292.43,484.15 296.10,489.00
             296.10,489.00 313.73,515.00 313.73,515.00
             316.75,521.34 315.06,528.52 317.46,535.00
             317.46,535.00 343.69,591.00 343.69,591.00
             343.69,591.00 356.56,621.00 356.56,621.00
             362.13,629.89 381.48,654.09 389.04,660.68
             389.04,660.68 429.00,686.60 429.00,686.60
             429.00,686.60 449.00,698.35 449.00,698.35
             449.00,698.35 464.00,702.37 464.00,702.37
             471.08,704.14 480.89,706.91 488.00,707.00
             488.00,707.00 522.00,708.00 522.00,708.00
             532.37,707.98 533.28,705.16 541.00,698.58
             549.45,691.38 552.84,688.45 560.28,680.00
             560.28,680.00 576.37,663.00 576.37,663.00
             576.37,663.00 594.26,628.00 594.26,628.00
             594.26,628.00 626.00,572.00 626.00,572.00
             630.75,564.08 642.16,541.30 644.78,533.00
             644.78,533.00 652.06,502.00 652.06,502.00
             652.06,502.00 665.31,472.00 665.31,472.00
             665.31,472.00 675.48,455.00 675.48,455.00
             675.48,455.00 688.01,421.00 688.01,421.00
             689.64,417.04 694.62,404.90 696.65,402.00
             696.65,402.00 709.44,388.00 709.44,388.00
             711.73,384.61 713.73,370.37 713.57,366.04
             713.40,361.46 708.54,360.02 705.00,358.25
             705.00,358.25 691.00,351.42 691.00,351.42
             688.50,350.33 684.53,348.98 683.02,346.61
             681.98,344.98 682.04,342.86 682.00,341.00
             682.00,341.00 682.00,326.00 682.00,326.00
             682.00,326.00 681.00,310.00 681.00,310.00
             681.00,310.00 681.00,263.00 681.00,263.00
             681.00,263.00 685.00,224.00 685.00,224.00
             685.00,224.00 685.00,188.00 685.00,188.00
             684.99,179.77 684.37,179.66 683.08,172.00
             679.22,149.11 679.10,149.03 671.05,127.00
             667.22,116.52 658.54,94.62 652.37,86.00
             650.19,82.96 642.97,75.88 640.00,73.04
             637.83,70.96 629.14,63.13 627.00,62.01
             623.95,60.41 610.37,58.96 606.00,58.25
             594.42,56.35 582.75,54.02 571.00,54.00
             571.00,54.00 554.00,53.00 554.00,53.00
             554.00,53.00 493.00,53.00 493.00,53.00
             481.24,53.02 470.14,57.86 464.00,57.82
             454.46,57.75 436.46,48.02 421.00,48.00
             421.00,48.00 367.00,48.00 367.00,48.00
             367.00,48.00 350.00,49.00 350.00,49.00
             350.00,49.00 290.08,49.00 290.08,49.00
             290.08,49.00 290.08,66.00 290.08,66.00
             290.08,66.00 290.08,75.91 290.08,75.91
             290.08,75.91 278.01,86.21 278.01,86.21
             278.01,86.21 275.73,97.00 275.73,97.00
             275.73,97.00 273.00,120.00 273.00,120.00
             270.47,120.06 255.87,121.02 254.60,122.02 Z" />
</svg>
